<svg xmlns="http://www.w3.org/2000/svg" viewBox="0 0 115.772 99.738" width="800.897" height="254.112"><defs><clipPath clipPathUnits="userSpaceOnUse" id="a"><rect x="201.43" y="329.51" width="332.14" height="305.91" rx="3.692" fill="#0f0" fill-opacity=".528"/></clipPath><filter id="b" color-interpolation-filters="sRGB"><feGaussianBlur stdDeviation=".18"/></filter></defs><g transform="translate(-170.45 -101.126) scale(.39218)"><rect ry="0" height="160.29" width="157.99" y="289.241" x="224.227" color="#000" fill="#fff" stroke="#000" enable-background="accumulate"/><g clip-path="url(#a)" transform="translate(-64.767 -112.844)" fill="#fff" stroke="#4d4d4d"><g stroke-width=".556"><path d="M260.238 554.09h8.982c1.71 0 3.088-1.69 3.088-3.787 0-2.098-1.377-3.786-3.088-3.786h-8.982c-1.71 0-3.087 1.688-3.087 3.786s1.377 3.786 3.087 3.786z" stroke-width="1.00037744"/><path d="M269.576 557.976H285.1c2.034 0 3.671-2.008 3.671-4.503v-6.328c0-2.495-1.637-4.503-3.671-4.503h-15.523c-2.034 0-3.671 2.008-3.671 4.503v6.328c0 2.494 1.637 4.503 3.671 4.503zM260.238 534.062h8.982c1.71 0 3.088-1.688 3.088-3.786s-1.377-3.786-3.088-3.786h-8.982c-1.71 0-3.087 1.688-3.087 3.786s1.377 3.786 3.087 3.786z" stroke-width="1.00037744"/><path d="M269.576 537.949H285.1c2.034 0 3.671-2.009 3.671-4.503v-6.328c0-2.495-1.637-4.503-3.671-4.503h-15.523c-2.034 0-3.671 2.008-3.671 4.503v6.328c0 2.494 1.637 4.503 3.671 4.503zM260.238 494.008h8.982c1.71 0 3.088-1.689 3.088-3.786 0-2.098-1.377-3.787-3.088-3.787h-8.982c-1.71 0-3.087 1.689-3.087 3.787 0 2.097 1.377 3.786 3.087 3.786z" stroke-width="1.00037744"/><path d="M269.576 497.894H285.1c2.034 0 3.671-2.008 3.671-4.503v-6.328c0-2.494-1.637-4.502-3.671-4.502h-15.523c-2.034 0-3.671 2.008-3.671 4.502v6.328c0 2.495 1.637 4.503 3.671 4.503zM260.238 473.98h8.982c1.71 0 3.088-1.688 3.088-3.786 0-2.097-1.377-3.786-3.088-3.786h-8.982c-1.71 0-3.087 1.689-3.087 3.786 0 2.098 1.377 3.787 3.087 3.787z" stroke-width="1.00037744"/><path d="M269.576 477.867H285.1c2.034 0 3.671-2.008 3.671-4.503v-6.328c0-2.494-1.637-4.503-3.671-4.503h-15.523c-2.034 0-3.671 2.009-3.671 4.503v6.328c0 2.495 1.637 4.503 3.671 4.503z" stroke-width="1.00037744"/><g><path d="M260.238 453.954h8.982c1.71 0 3.088-1.689 3.088-3.787 0-2.097-1.377-3.786-3.088-3.786h-8.982c-1.71 0-3.087 1.689-3.087 3.786 0 2.098 1.377 3.787 3.087 3.787z" stroke-width="1.00037744"/><path d="M269.576 457.84H285.1c2.034 0 3.671-2.008 3.671-4.503v-6.328c0-2.494-1.637-4.503-3.671-4.503h-15.523c-2.034 0-3.671 2.009-3.671 4.503v6.328c0 2.495 1.637 4.503 3.671 4.503z" stroke-width="1.00037744"/></g><g><path d="M260.238 514.035h8.982c1.71 0 3.088-1.689 3.088-3.786 0-2.098-1.377-3.787-3.088-3.787h-8.982c-1.71 0-3.087 1.689-3.087 3.787 0 2.097 1.377 3.786 3.087 3.786z" stroke-width="1.00037744"/><path d="M269.576 517.921H285.1c2.034 0 3.671-2.008 3.671-4.502v-6.329c0-2.494-1.637-4.502-3.671-4.502h-15.523c-2.034 0-3.671 2.008-3.671 4.502v6.329c0 2.494 1.637 4.502 3.671 4.502z" stroke-width="1.00037744"/></g><g><path d="M260.238 413.9h8.982c1.71 0 3.088-1.69 3.088-3.787s-1.377-3.786-3.088-3.786h-8.982c-1.71 0-3.087 1.688-3.087 3.786s1.377 3.786 3.087 3.786z" stroke-width="1.00037744"/><path d="M269.576 417.786H285.1c2.034 0 3.671-2.008 3.671-4.503v-6.328c0-2.495-1.637-4.503-3.671-4.503h-15.523c-2.034 0-3.671 2.008-3.671 4.503v6.328c0 2.494 1.637 4.503 3.671 4.503z" stroke-width="1.00037744"/></g><g><path d="M260.238 433.927h8.982c1.71 0 3.088-1.69 3.088-3.787s-1.377-3.786-3.088-3.786h-8.982c-1.71 0-3.087 1.689-3.087 3.786 0 2.098 1.377 3.787 3.087 3.787z" stroke-width="1.00037744"/><path d="M269.576 437.813H285.1c2.034 0 3.671-2.008 3.671-4.503v-6.328c0-2.494-1.637-4.503-3.671-4.503h-15.523c-2.034 0-3.671 2.008-3.671 4.503v6.328c0 2.495 1.637 4.503 3.671 4.503z" stroke-width="1.00037744"/></g><g><path d="M475.757 555.906h-8.982c-1.71 0-3.088-1.688-3.088-3.786s1.377-3.786 3.088-3.786h8.982c1.71 0 3.087 1.688 3.087 3.786s-1.377 3.786-3.087 3.786z" stroke-width="1.00037744"/><path d="M466.418 559.793h-15.522c-2.034 0-3.672-2.008-3.672-4.503v-6.328c0-2.495 1.638-4.503 3.672-4.503h15.522c2.035 0 3.672 2.008 3.672 4.503v6.328c0 2.494-1.637 4.503-3.672 4.503zM475.757 535.88h-8.982c-1.71 0-3.088-1.69-3.088-3.787 0-2.098 1.377-3.786 3.088-3.786h8.982c1.71 0 3.087 1.688 3.087 3.786s-1.377 3.786-3.087 3.786z" stroke-width="1.00037744"/><path d="M466.418 539.766h-15.522c-2.034 0-3.672-2.009-3.672-4.503v-6.328c0-2.495 1.638-4.503 3.672-4.503h15.522c2.035 0 3.672 2.008 3.672 4.503v6.328c0 2.494-1.637 4.503-3.672 4.503zM475.757 495.825h-8.982c-1.71 0-3.088-1.689-3.088-3.786 0-2.098 1.377-3.787 3.088-3.787h8.982c1.71 0 3.087 1.689 3.087 3.787 0 2.097-1.377 3.786-3.087 3.786z" stroke-width="1.00037744"/><path d="M466.418 499.711h-15.522c-2.034 0-3.672-2.008-3.672-4.502v-6.329c0-2.494 1.638-4.502 3.672-4.502h15.522c2.035 0 3.672 2.008 3.672 4.502v6.329c0 2.494-1.637 4.502-3.672 4.502zM475.757 475.798h-8.982c-1.71 0-3.088-1.689-3.088-3.786 0-2.098 1.377-3.787 3.088-3.787h8.982c1.71 0 3.087 1.689 3.087 3.787 0 2.097-1.377 3.786-3.087 3.786z" stroke-width="1.00037744"/><path d="M466.418 479.684h-15.522c-2.034 0-3.672-2.008-3.672-4.503v-6.328c0-2.494 1.638-4.502 3.672-4.502h15.522c2.035 0 3.672 2.008 3.672 4.502v6.328c0 2.495-1.637 4.503-3.672 4.503z" stroke-width="1.00037744"/><g><path d="M475.757 455.77h-8.982c-1.71 0-3.088-1.688-3.088-3.786 0-2.097 1.377-3.786 3.088-3.786h8.982c1.71 0 3.087 1.689 3.087 3.786 0 2.098-1.377 3.787-3.087 3.787z" stroke-width="1.00037744"/><path d="M466.418 459.657h-15.522c-2.034 0-3.672-2.008-3.672-4.503v-6.328c0-2.494 1.638-4.503 3.672-4.503h15.522c2.035 0 3.672 2.009 3.672 4.503v6.328c0 2.495-1.637 4.503-3.672 4.503z" stroke-width="1.00037744"/></g><g><path d="M475.757 515.852h-8.982c-1.71 0-3.088-1.689-3.088-3.786 0-2.098 1.377-3.787 3.088-3.787h8.982c1.71 0 3.087 1.69 3.087 3.787s-1.377 3.786-3.087 3.786z" stroke-width="1.00037744"/><path d="M466.418 519.738h-15.522c-2.034 0-3.672-2.008-3.672-4.502v-6.328c0-2.495 1.638-4.503 3.672-4.503h15.522c2.035 0 3.672 2.008 3.672 4.503v6.328c0 2.494-1.637 4.502-3.672 4.502z" stroke-width="1.00037744"/></g><g><path d="M475.757 415.716h-8.982c-1.71 0-3.088-1.688-3.088-3.786 0-2.097 1.377-3.786 3.088-3.786h8.982c1.71 0 3.087 1.689 3.087 3.786 0 2.098-1.377 3.786-3.087 3.786z" stroke-width="1.00037744"/><path d="M466.418 419.603h-15.522c-2.034 0-3.672-2.008-3.672-4.503v-6.328c0-2.495 1.638-4.503 3.672-4.503h15.522c2.035 0 3.672 2.008 3.672 4.503v6.328c0 2.495-1.637 4.503-3.672 4.503z" stroke-width="1.00037744"/></g><g><path d="M475.757 435.744h-8.982c-1.71 0-3.088-1.689-3.088-3.787 0-2.097 1.377-3.786 3.088-3.786h8.982c1.71 0 3.087 1.689 3.087 3.786 0 2.098-1.377 3.787-3.087 3.787z" stroke-width="1.00037744"/><path d="M466.418 439.63h-15.522c-2.034 0-3.672-2.008-3.672-4.503V428.8c0-2.494 1.638-4.503 3.672-4.503h15.522c2.035 0 3.672 2.008 3.672 4.503v6.328c0 2.495-1.637 4.503-3.672 4.503z" stroke-width="1.00037744"/></g></g></g><g stroke-width=".556"><path d="M440.057 589.806v-8.982c0-1.71-1.688-3.088-3.786-3.088s-3.786 1.377-3.786 3.088v8.982c0 1.71 1.688 3.087 3.786 3.087s3.786-1.377 3.786-3.087z" stroke-width="1.00037744"/><path d="M443.944 580.468v-15.523c0-2.034-2.009-3.671-4.503-3.671h-6.328c-2.495 0-4.503 1.637-4.503 3.671v15.523c0 2.034 2.008 3.671 4.503 3.671h6.328c2.494 0 4.503-1.637 4.503-3.671zM420.03 589.806v-8.982c0-1.71-1.689-3.088-3.786-3.088-2.098 0-3.787 1.378-3.787 3.088v8.982c0 1.71 1.69 3.087 3.787 3.087s3.786-1.377 3.786-3.087z" stroke-width="1.00037744"/><path d="M423.916 580.468v-15.523c0-2.034-2.008-3.671-4.502-3.671h-6.328c-2.495 0-4.503 1.637-4.503 3.671v15.523c0 2.034 2.008 3.671 4.503 3.671h6.328c2.494 0 4.502-1.637 4.502-3.671zM379.976 589.806v-8.982c0-1.71-1.689-3.088-3.787-3.088-2.097 0-3.786 1.377-3.786 3.088v8.982c0 1.71 1.689 3.087 3.786 3.087 2.098 0 3.787-1.377 3.787-3.087z" stroke-width="1.00037744"/><path d="M383.862 580.468v-15.523c0-2.034-2.008-3.671-4.503-3.671h-6.328c-2.494 0-4.502 1.637-4.502 3.671v15.523c0 2.034 2.008 3.671 4.502 3.671h6.328c2.495 0 4.503-1.637 4.503-3.671zM359.949 589.806v-8.982c0-1.71-1.689-3.088-3.787-3.088-2.097 0-3.786 1.378-3.786 3.088v8.982c0 1.71 1.689 3.087 3.786 3.087 2.098 0 3.787-1.377 3.787-3.087z" stroke-width="1.00037744"/><path d="M363.835 580.468v-15.523c0-2.034-2.008-3.671-4.503-3.671h-6.328c-2.494 0-4.503 1.637-4.503 3.671v15.523c0 2.034 2.009 3.671 4.503 3.671h6.328c2.495 0 4.503-1.637 4.503-3.671z" stroke-width="1.00037744"/><g><path d="M339.922 589.806v-8.982c0-1.71-1.69-3.088-3.787-3.088s-3.786 1.377-3.786 3.088v8.982c0 1.71 1.689 3.087 3.786 3.087 2.098 0 3.787-1.377 3.787-3.087z" stroke-width="1.00037744"/><path d="M343.808 580.468v-15.523c0-2.034-2.008-3.671-4.503-3.671h-6.328c-2.494 0-4.503 1.637-4.503 3.671v15.523c0 2.034 2.008 3.671 4.503 3.671h6.328c2.495 0 4.503-1.637 4.503-3.671z" stroke-width="1.00037744"/></g><g><path d="M400.003 589.806v-8.982c0-1.71-1.689-3.088-3.786-3.088-2.098 0-3.787 1.377-3.787 3.088v8.982c0 1.71 1.689 3.087 3.787 3.087 2.097 0 3.786-1.377 3.786-3.087z" stroke-width="1.00037744"/><path d="M403.89 580.468v-15.523c0-2.034-2.009-3.671-4.504-3.671h-6.328c-2.494 0-4.502 1.637-4.502 3.671v15.523c0 2.034 2.008 3.671 4.502 3.671h6.328c2.495 0 4.503-1.637 4.503-3.671z" stroke-width="1.00037744"/></g><g><path d="M299.867 589.806v-8.982c0-1.71-1.688-3.088-3.786-3.088s-3.786 1.377-3.786 3.088v8.982c0 1.71 1.688 3.087 3.786 3.087s3.786-1.377 3.786-3.087z" stroke-width="1.00037744"/><path d="M303.754 580.468v-15.523c0-2.034-2.008-3.671-4.503-3.671h-6.328c-2.495 0-4.503 1.637-4.503 3.671v15.523c0 2.034 2.008 3.671 4.503 3.671h6.328c2.494 0 4.503-1.637 4.503-3.671z" stroke-width="1.00037744"/></g><g><path d="M319.895 589.806v-8.982c0-1.71-1.69-3.088-3.787-3.088s-3.786 1.377-3.786 3.088v8.982c0 1.71 1.689 3.087 3.786 3.087 2.098 0 3.787-1.377 3.787-3.087z" stroke-width="1.00037744"/><path d="M323.78 580.468v-15.523c0-2.034-2.007-3.671-4.502-3.671h-6.328c-2.494 0-4.503 1.637-4.503 3.671v15.523c0 2.034 2.008 3.671 4.503 3.671h6.328c2.495 0 4.503-1.637 4.503-3.671z" stroke-width="1.00037744"/></g></g><path d="M452.33 397.81l-10 9.992-.023 148.6 10.027 10-.004-168.59" stroke-width="2" stroke-linejoin="round"/><g stroke-width=".556"><path d="M441.874 374.288v8.981c0 1.71-1.688 3.088-3.786 3.088s-3.786-1.377-3.786-3.088v-8.981c0-1.711 1.688-3.088 3.786-3.088s3.786 1.377 3.786 3.088z" stroke-width="1.00037744"/><path d="M445.76 383.626v15.522c0 2.034-2.007 3.672-4.502 3.672h-6.328c-2.495 0-4.503-1.638-4.503-3.672v-15.522c0-2.035 2.008-3.672 4.503-3.672h6.328c2.494 0 4.503 1.637 4.503 3.672zM421.847 374.287v8.982c0 1.71-1.688 3.088-3.786 3.088s-3.786-1.377-3.786-3.088v-8.982c0-1.71 1.688-3.087 3.786-3.087s3.786 1.377 3.786 3.087z" stroke-width="1.00037744"/><path d="M425.734 383.626v15.522c0 2.034-2.009 3.672-4.503 3.672h-6.328c-2.495 0-4.503-1.638-4.503-3.672v-15.522c0-2.035 2.008-3.672 4.503-3.672h6.328c2.494 0 4.503 1.637 4.503 3.672zM381.793 374.288v8.981c0 1.71-1.689 3.088-3.786 3.088-2.098 0-3.787-1.377-3.787-3.088v-8.981c0-1.711 1.689-3.088 3.787-3.088 2.097 0 3.786 1.377 3.786 3.088z" stroke-width="1.00037744"/><path d="M385.68 383.626v15.522c0 2.034-2.009 3.672-4.504 3.672h-6.328c-2.494 0-4.502-1.638-4.502-3.672v-15.522c0-2.035 2.008-3.672 4.502-3.672h6.328c2.495 0 4.503 1.637 4.503 3.672zM361.766 374.287v8.982c0 1.71-1.689 3.088-3.787 3.088-2.097 0-3.786-1.377-3.786-3.088v-8.982c0-1.71 1.689-3.087 3.786-3.087 2.098 0 3.787 1.377 3.787 3.087z" stroke-width="1.00037744"/><path d="M365.652 383.626v15.522c0 2.034-2.008 3.672-4.503 3.672h-6.328c-2.494 0-4.503-1.638-4.503-3.672v-15.522c0-2.035 2.009-3.672 4.503-3.672h6.328c2.495 0 4.503 1.637 4.503 3.672z" stroke-width="1.00037744"/><g><path d="M341.739 374.288v8.981c0 1.71-1.689 3.088-3.787 3.088-2.097 0-3.786-1.377-3.786-3.088v-8.981c0-1.711 1.689-3.088 3.786-3.088 2.098 0 3.787 1.377 3.787 3.088z" stroke-width="1.00037744"/><path d="M345.625 383.626v15.522c0 2.034-2.008 3.672-4.503 3.672h-6.328c-2.494 0-4.503-1.638-4.503-3.672v-15.522c0-2.035 2.009-3.672 4.503-3.672h6.328c2.495 0 4.503 1.637 4.503 3.672z" stroke-width="1.00037744"/></g><g><path d="M401.82 374.288v8.981c0 1.71-1.689 3.088-3.786 3.088-2.098 0-3.787-1.377-3.787-3.088v-8.981c0-1.711 1.689-3.088 3.787-3.088 2.097 0 3.786 1.377 3.786 3.088z" stroke-width="1.00037744"/><path d="M405.706 383.626v15.522c0 2.034-2.008 3.672-4.502 3.672h-6.329c-2.494 0-4.502-1.638-4.502-3.672v-15.522c0-2.035 2.008-3.672 4.502-3.672h6.329c2.494 0 4.502 1.637 4.502 3.672z" stroke-width="1.00037744"/></g><g><path d="M301.684 374.288v8.981c0 1.71-1.688 3.088-3.786 3.088-2.097 0-3.786-1.377-3.786-3.088v-8.981c0-1.711 1.688-3.088 3.786-3.088s3.786 1.377 3.786 3.088z" stroke-width="1.00037744"/><path d="M305.57 383.626v15.522c0 2.034-2.007 3.672-4.502 3.672h-6.328c-2.495 0-4.503-1.638-4.503-3.672v-15.522c0-2.035 2.008-3.672 4.503-3.672h6.328c2.494 0 4.503 1.637 4.503 3.672z" stroke-width="1.00037744"/></g><g><path d="M321.712 374.288v8.981c0 1.71-1.69 3.088-3.787 3.088s-3.786-1.377-3.786-3.088v-8.981c0-1.711 1.689-3.088 3.786-3.088 2.098 0 3.787 1.377 3.787 3.088z" stroke-width="1.00037744"/><path d="M325.598 383.626v15.522c0 2.034-2.008 3.672-4.503 3.672h-6.328c-2.494 0-4.503-1.638-4.503-3.672v-15.522c0-2.035 2.008-3.672 4.503-3.672h6.328c2.495 0 4.503 1.637 4.503 3.672z" stroke-width="1.00037744"/></g></g><path d="M283.71 397.85l9.992 10 148.6.023 10-10.027-168.59.004M452.31 566.36l-9.992-10-148.6-.023-10 10.027 168.59-.004" stroke-width="2" stroke-linejoin="round"/><path d="M283.66 566.37l10-9.992.023-148.6-10.027-10 .004 168.59" stroke-width="2" stroke-linejoin="round"/><rect ry="10.165" height="20.329" width="20.329" y="416" x="298.77" stroke-width="2" stroke-linejoin="round" filter="url(#b)"/></g><g stroke="#fff"><path d="M343.338 367.074l87.758 87.076-31.853-2.33 22.918 40.787-30.3 15.927-18.645-42.342-26.415 27.58z" stroke-width="8.22169753" stroke-linecap="round" stroke-linejoin="bevel" fill="#fff"/><path d="M343.956 372.373l78.753 78.141-28.585-2.091 20.567 36.602-27.19 14.293-16.733-37.998-23.705 24.75z" fill="#1b1b1b" stroke-width="7.37811313" stroke-linecap="round" stroke-linejoin="bevel"/></g><g style="line-height:1000%" font-size="113.691" font-family="Lato" letter-spacing="0" word-spacing="0" fill="#fff" stroke="#fff" stroke-width="2.842" font-weight="700"><path d="M470.587 371.72h3.581q2.16 0 3.582-.569 1.42-.625 2.444-1.932l22.681-28.708q1.422-1.819 2.956-2.5 1.592-.74 3.98-.74h13.188l-27.684 34.164q-2.444 3.127-5.06 4.434 1.877.683 3.355 1.933 1.534 1.194 2.899 3.184l28.536 38.484h-13.472q-2.729 0-4.093-.739-1.308-.796-2.217-2.274l-23.25-30.355q-1.08-1.535-2.501-2.16-1.421-.626-4.093-.626h-4.832v36.154h-15.291v-82.199h15.291v34.449zM545.572 361.146v58.324h-14.098v-58.324h14.098zm1.933-16.996q0 1.819-.74 3.41-.738 1.592-1.989 2.786-1.194 1.193-2.842 1.932-1.649.683-3.525.683-1.819 0-3.467-.683-1.592-.739-2.786-1.932-1.193-1.194-1.932-2.786-.683-1.591-.683-3.41 0-1.876.683-3.525.739-1.648 1.932-2.842 1.194-1.194 2.786-1.876 1.648-.74 3.467-.74 1.876 0 3.525.74 1.648.682 2.842 1.876 1.25 1.194 1.99 2.842.739 1.649.739 3.525zM579.328 420.38q-7.618 0-11.71-4.264-4.037-4.32-4.037-11.88v-32.573h-5.968q-1.137 0-1.933-.74-.796-.738-.796-2.216v-5.571l9.38-1.535 2.955-15.917q.285-1.137 1.08-1.762.796-.625 2.047-.625h7.276v18.361h15.576v10.005h-15.576v31.606q0 2.729 1.308 4.264 1.364 1.534 3.695 1.534 1.307 0 2.16-.284.91-.34 1.535-.682.682-.341 1.193-.625.512-.341 1.024-.341.625 0 1.023.34.398.285.853.91l4.206 6.822q-3.07 2.558-7.049 3.865-3.979 1.308-8.242 1.308zM637.662 372.516q-.568.91-1.194 1.307-.625.341-1.591.341-1.024 0-2.217-.568-1.137-.569-2.672-1.251-1.535-.739-3.525-1.307-1.932-.569-4.604-.569-4.15 0-6.537 1.762-2.331 1.763-2.331 4.605 0 1.876 1.194 3.183 1.25 1.25 3.24 2.217 2.046.967 4.604 1.762 2.558.74 5.173 1.649 2.672.91 5.23 2.103 2.558 1.137 4.548 2.956 2.046 1.762 3.24 4.264 1.25 2.5 1.25 6.025 0 4.207-1.534 7.788-1.478 3.525-4.434 6.14-2.956 2.558-7.333 4.036-4.32 1.42-10.005 1.42-3.013 0-5.912-.568-2.842-.511-5.514-1.478-2.615-.966-4.889-2.274-2.217-1.307-3.922-2.842l3.24-5.343q.625-.967 1.478-1.478.853-.512 2.16-.512 1.308 0 2.445.739 1.193.739 2.728 1.592 1.535.852 3.581 1.591 2.104.74 5.287.74 2.501 0 4.263-.57 1.82-.624 2.956-1.59 1.194-.967 1.706-2.218.568-1.307.568-2.671 0-2.047-1.25-3.354-1.194-1.308-3.24-2.274-1.99-.967-4.605-1.706-2.558-.795-5.287-1.705-2.671-.91-5.286-2.103-2.558-1.25-4.605-3.127-1.99-1.876-3.24-4.604-1.194-2.729-1.194-6.594 0-3.582 1.421-6.822t4.15-5.628q2.786-2.444 6.878-3.865 4.15-1.478 9.55-1.478 6.026 0 10.972 1.99 4.945 1.99 8.242 5.23l-3.183 5.059zM652.039 438.513v-77.367h8.583q2.729 0 3.582 2.558l1.137 5.4q3.524-4.035 8.072-6.536 4.604-2.502 10.743-2.502 4.776 0 8.698 1.99 3.98 1.99 6.821 5.798 2.9 3.752 4.434 9.323 1.592 5.514 1.592 12.677 0 6.537-1.762 12.108-1.762 5.57-5.06 9.663-3.24 4.093-7.901 6.424-4.605 2.274-10.346 2.274-4.946 0-8.413-1.478-3.41-1.535-6.14-4.207v23.875h-14.04zm27.286-67.362q-4.378 0-7.504 1.876-3.07 1.82-5.741 5.173v26.15q2.387 2.955 5.173 4.149 2.842 1.137 6.139 1.137 3.183 0 5.741-1.194t4.32-3.638q1.82-2.444 2.786-6.14.966-3.751.966-8.81 0-5.117-.852-8.641-.796-3.581-2.331-5.798t-3.752-3.24q-2.16-1.024-4.945-1.024zM754.8 419.47q-1.99 0-3.07-.568-1.08-.626-1.705-2.445l-1.25-4.15q-2.218 1.99-4.321 3.525-2.103 1.478-4.377 2.501-2.274 1.023-4.889 1.535-2.558.512-5.685.512-3.695 0-6.821-.967-3.127-1.023-5.4-3.013-2.274-1.99-3.525-4.945-1.25-2.956-1.25-6.878 0-3.297 1.705-6.48 1.762-3.241 5.798-5.8 4.036-2.614 10.744-4.32 6.708-1.705 16.713-1.932v-3.41q0-5.856-2.502-8.641-2.5-2.843-7.219-2.843-3.41 0-5.685.796-2.217.796-3.922 1.82-1.705.966-3.126 1.761-1.365.796-3.07.796-1.478 0-2.501-.739-1.024-.796-1.649-1.819l-2.501-4.49q10.062-9.21 24.216-9.21 5.116 0 9.152 1.706 4.036 1.648 6.822 4.661 2.785 2.956 4.206 7.106 1.478 4.15 1.478 9.095v36.836H754.8zm-20.976-8.754q4.32 0 7.446-1.535 3.184-1.592 6.197-4.775v-9.834q-6.14.284-10.29 1.08-4.092.739-6.594 1.933-2.5 1.193-3.58 2.785t-1.08 3.468q0 3.695 2.16 5.286 2.216 1.592 5.74 1.592zM816.172 373.482q-.625.796-1.25 1.25-.57.455-1.706.455-1.08 0-2.103-.625-1.024-.682-2.445-1.478-1.42-.853-3.41-1.478-1.933-.682-4.832-.682-3.695 0-6.48 1.364-2.786 1.308-4.662 3.809-1.82 2.501-2.729 6.082-.91 3.525-.91 8.016 0 4.661.967 8.3 1.023 3.637 2.9 6.138 1.875 2.445 4.547 3.752 2.672 1.25 6.026 1.25 3.353 0 5.4-.795 2.103-.853 3.524-1.82 1.421-1.022 2.445-1.818 1.08-.853 2.387-.853 1.706 0 2.558 1.308l4.036 5.116q-2.33 2.728-5.059 4.604-2.729 1.82-5.685 2.956-2.899 1.08-6.025 1.535-3.07.455-6.14.455-5.4 0-10.175-1.99-4.775-2.046-8.356-5.912-3.582-3.865-5.685-9.436-2.046-5.628-2.046-12.79 0-6.424 1.819-11.881 1.876-5.514 5.457-9.493 3.581-4.036 8.868-6.31 5.287-2.274 12.165-2.274 6.537 0 11.426 2.103 4.945 2.103 8.868 6.026l-3.695 5.116zM852.969 360.237q5.514 0 10.175 1.762 4.662 1.762 8.015 5.173 3.354 3.354 5.23 8.3 1.933 4.888 1.933 11.198 0 3.184-.682 4.32-.682 1.08-2.615 1.08h-36.097q.341 4.491 1.592 7.788 1.25 3.24 3.297 5.4 2.046 2.104 4.832 3.184 2.842 1.023 6.253 1.023 3.41 0 5.855-.796 2.5-.795 4.32-1.762 1.876-.966 3.24-1.762 1.421-.796 2.729-.796 1.762 0 2.615 1.308l4.036 5.116q-2.331 2.728-5.23 4.604-2.9 1.82-6.083 2.956-3.126 1.08-6.423 1.535-3.24.455-6.31.455-6.083 0-11.312-1.99-5.23-2.046-9.096-5.969-3.865-3.979-6.082-9.777-2.217-5.855-2.217-13.53 0-5.968 1.933-11.198 1.932-5.287 5.514-9.152 3.638-3.922 8.81-6.196 5.23-2.274 11.768-2.274zm.284 10.062q-6.14 0-9.607 3.467-3.467 3.468-4.434 9.834h26.49q0-2.728-.796-5.116-.739-2.444-2.273-4.263-1.535-1.82-3.923-2.842-2.33-1.08-5.457-1.08z" style="-inkscape-font-specification:'Lato Bold'"/></g></g></svg>